# xmcd
#
# Track frame offsets: 
#        150
#        15758
#        33669
#        50243
#        69206
#        91026
#        108956
#        133992
#        156415
#        176906
#        196379
#        211796
#        229590
#        248030
#        265988
#        290783
#        312698
#        331291
#        347402
#
# Disc length: 4799 seconds
#
# Revision: 0
# Processed by: cddbd v1.5.2PL0 Copyright (c) Steve Scherf et al.
# Submitted via: ExactAudioCopyFreeDBPlugin 1.0
#
DISCID=1712bd13
DTITLE=Blackstreet - L'intégrale (3 CD and 1 DVD) - CD3 Best Of Teddy Ri
DTITLE=ley (Prod and Rmx)
DYEAR=2011
DGENRE=R&B
TTITLE0=Heavy D. And The Boyz - This Is Your Night
TTITLE1=Dj Jazzy Jeff and The Fresh Prince - I'm Looking For The One (To
TTITLE1=Be With Me)
TTITLE2=Ll Cool J - Stand By Your Man (New Jack Mix)
TTITLE3=Tammy Lucas and Teddy Riley - Is It Good To You (Rmx)
TTITLE4=Swv Feat. Michael Jackson - Right Here (Demolition 12'' Mix)
TTITLE5=Michael Jackson - Remember The Time
TTITLE6=Eternal - Stay (Rmx)
TTITLE7=911 - Cutie (Rmx)
TTITLE8=Wrecks N Effect - Rump Shaker (Rmx)
TTITLE9=father mc - 69
TTITLE10=R. Kelly - Summer Bunnies (Rmx)
TTITLE11=DG - Hush Don't Say A Word (Rmx)
TTITLE12=Guy - Tell Me What You Like (Rmx)
TTITLE13=Bubba - I Like Your Style (Extended Vocal)
TTITLE14=Jane Child - Don't Wanna Fall In Love (New Jack Rmx)
TTITLE15=Samuelle - So You Like What You See
TTITLE16=Bobby Brown - Every Little Hit Megmix (Radio Edit)
TTITLE17=Keith Sweat - I Want Her
TTITLE18=Teddy Riley - Diggin' Your Girl
EXTD=
EXTT0=
EXTT1=
EXTT2=
EXTT3=
EXTT4=
EXTT5=
EXTT6=
EXTT7=
EXTT8=
EXTT9=
EXTT10=
EXTT11=
EXTT12=
EXTT13=
EXTT14=
EXTT15=
EXTT16=
EXTT17=
EXTT18=
PLAYORDER=
